{
    "asset" : {
        "generator" : "Khronos glTF Blender I/O v3.3.32",
        "version" : "2.0"
    },
    "scene" : 0,
    "scenes" : [
        {
            "name" : "Scene",
            "nodes" : [
                0,
                1
            ]
        }
    ],
    "nodes" : [
        {
            "mesh" : 0,
            "name" : "maderas_banco",
            "rotation" : [
                0.6953064799308777,
                -0.12864276766777039,
                0.12864278256893158,
                0.6953064799308777
            ],
            "translation" : [
                -0.8273788690567017,
                0.6220259070396423,
                -1.15041184425354
            ]
        },
        {
            "mesh" : 1,
            "name" : "bancoluz",
            "rotation" : [
                0.4006917178630829,
                -0.5826200842857361,
                0.5826200842857361,
                0.4006917476654053
            ],
            "translation" : [
                -1.4760406017303467,
                0.3924930989742279,
                -0.3134446144104004
            ]
        }
    ],
    "materials" : [
        {
            "doubleSided" : true,
            "name" : "banco_madera",
            "pbrMetallicRoughness" : {
                "baseColorFactor" : [
                    0.43921568989753723,
                    0.22745098173618317,
                    0.13725490868091583,
                    1
                ],
                "metallicFactor" : 0,
                "roughnessFactor" : 0.5
            }
        },
        {
            "doubleSided" : true,
            "name" : "Material.008",
            "pbrMetallicRoughness" : {
                "baseColorFactor" : [
                    0.7128255367279053,
                    0.7128255367279053,
                    0.7128255367279053,
                    1
                ],
                "metallicFactor" : 0,
                "roughnessFactor" : 0.5
            }
        },
        {
            "doubleSided" : true,
            "name" : "Material.011",
            "pbrMetallicRoughness" : {
                "baseColorFactor" : [
                    0.8990609645843506,
                    0.8812913298606873,
                    0.8812913298606873,
                    1
                ],
                "metallicFactor" : 0,
                "roughnessFactor" : 0.5
            }
        }
    ],
    "meshes" : [
        {
            "name" : "Cube.007",
            "primitives" : [
                {
                    "attributes" : {
                        "POSITION" : 0,
                        "NORMAL" : 1,
                        "TEXCOORD_0" : 2,
                        "COLOR_0" : 3
                    },
                    "indices" : 4,
                    "material" : 0
                }
            ]
        },
        {
            "name" : "Cube.003",
            "primitives" : [
                {
                    "attributes" : {
                        "POSITION" : 5,
                        "NORMAL" : 6,
                        "TEXCOORD_0" : 7,
                        "COLOR_0" : 8
                    },
                    "indices" : 9,
                    "material" : 1
                },
                {
                    "attributes" : {
                        "POSITION" : 10,
                        "NORMAL" : 11,
                        "TEXCOORD_0" : 12,
                        "COLOR_0" : 13
                    },
                    "indices" : 14,
                    "material" : 2
                }
            ]
        }
    ],
    "accessors" : [
        {
            "bufferView" : 0,
            "componentType" : 5126,
            "count" : 1056,
            "max" : [
                0.023744849488139153,
                1.2654776573181152,
                0.028317611664533615
            ],
            "min" : [
                -0.629144549369812,
                -1.2654775381088257,
                -0.03212309628725052
            ],
            "type" : "VEC3"
        },
        {
            "bufferView" : 1,
            "componentType" : 5126,
            "count" : 1056,
            "type" : "VEC3"
        },
        {
            "bufferView" : 2,
            "componentType" : 5126,
            "count" : 1056,
            "type" : "VEC2"
        },
        {
            "bufferView" : 3,
            "componentType" : 5123,
            "count" : 1056,
            "normalized" : true,
            "type" : "VEC4"
        },
        {
            "bufferView" : 4,
            "componentType" : 5123,
            "count" : 1452,
            "type" : "SCALAR"
        },
        {
            "bufferView" : 5,
            "componentType" : 5126,
            "count" : 1608,
            "max" : [
                0.08198767900466919,
                0.32283544540405273,
                0.19947123527526855
            ],
            "min" : [
                -2.1092770099639893,
                -0.3298541307449341,
                -0.20107793807983398
            ],
            "type" : "VEC3"
        },
        {
            "bufferView" : 6,
            "componentType" : 5126,
            "count" : 1608,
            "type" : "VEC3"
        },
        {
            "bufferView" : 7,
            "componentType" : 5126,
            "count" : 1608,
            "type" : "VEC2"
        },
        {
            "bufferView" : 8,
            "componentType" : 5123,
            "count" : 1608,
            "normalized" : true,
            "type" : "VEC4"
        },
        {
            "bufferView" : 9,
            "componentType" : 5123,
            "count" : 2340,
            "type" : "SCALAR"
        },
        {
            "bufferView" : 10,
            "componentType" : 5126,
            "count" : 32,
            "max" : [
                0.05513416603207588,
                0.1707352101802826,
                0.18443191051483154
            ],
            "min" : [
                -2.082423448562622,
                -0.17822234332561493,
                -0.1939823031425476
            ],
            "type" : "VEC3"
        },
        {
            "bufferView" : 11,
            "componentType" : 5126,
            "count" : 32,
            "type" : "VEC3"
        },
        {
            "bufferView" : 12,
            "componentType" : 5126,
            "count" : 32,
            "type" : "VEC2"
        },
        {
            "bufferView" : 13,
            "componentType" : 5123,
            "count" : 32,
            "normalized" : true,
            "type" : "VEC4"
        },
        {
            "bufferView" : 14,
            "componentType" : 5123,
            "count" : 48,
            "type" : "SCALAR"
        }
    ],
    "bufferViews" : [
        {
            "buffer" : 0,
            "byteLength" : 12672,
            "byteOffset" : 0,
            "target" : 34962
        },
        {
            "buffer" : 0,
            "byteLength" : 12672,
            "byteOffset" : 12672,
            "target" : 34962
        },
        {
            "buffer" : 0,
            "byteLength" : 8448,
            "byteOffset" : 25344,
            "target" : 34962
        },
        {
            "buffer" : 0,
            "byteLength" : 8448,
            "byteOffset" : 33792,
            "target" : 34962
        },
        {
            "buffer" : 0,
            "byteLength" : 2904,
            "byteOffset" : 42240,
            "target" : 34963
        },
        {
            "buffer" : 0,
            "byteLength" : 19296,
            "byteOffset" : 45144,
            "target" : 34962
        },
        {
            "buffer" : 0,
            "byteLength" : 19296,
            "byteOffset" : 64440,
            "target" : 34962
        },
        {
            "buffer" : 0,
            "byteLength" : 12864,
            "byteOffset" : 83736,
            "target" : 34962
        },
        {
            "buffer" : 0,
            "byteLength" : 12864,
            "byteOffset" : 96600,
            "target" : 34962
        },
        {
            "buffer" : 0,
            "byteLength" : 4680,
            "byteOffset" : 109464,
            "target" : 34963
        },
        {
            "buffer" : 0,
            "byteLength" : 384,
            "byteOffset" : 114144,
            "target" : 34962
        },
        {
            "buffer" : 0,
            "byteLength" : 384,
            "byteOffset" : 114528,
            "target" : 34962
        },
        {
            "buffer" : 0,
            "byteLength" : 256,
            "byteOffset" : 114912,
            "target" : 34962
        },
        {
            "buffer" : 0,
            "byteLength" : 256,
            "byteOffset" : 115168,
            "target" : 34962
        },
        {
            "buffer" : 0,
            "byteLength" : 96,
            "byteOffset" : 115424,
            "target" : 34963
        }
    ],
    "buffers" : [
        {
            "byteLength" : 115520,
            "uri" : "kursitaman.bin"
        }
    ]
}
